<mxfile host="app.diagrams.net" modified="2024-01-16T12:23:11.694Z" agent="Mozilla/5.0 (Windows NT 10.0; Win64; x64) AppleWebKit/537.36 (KHTML, like Gecko) Chrome/120.0.0.0 Safari/537.36 Edg/120.0.0.0" etag="zhrlsYmJJxT_LkQdVsfz" version="22.1.18" type="device">
  <diagram name="Stránka-1" id="Pig3QAI06RsVhK31bh_Y">
    <mxGraphModel dx="956" dy="547" grid="1" gridSize="10" guides="1" tooltips="1" connect="1" arrows="1" fold="1" page="1" pageScale="1" pageWidth="827" pageHeight="1169" math="0" shadow="0">
      <root>
        <mxCell id="0" />
        <mxCell id="1" parent="0" />
        <mxCell id="XjuXVxNK4QbtMKnYvpnl-4" style="edgeStyle=orthogonalEdgeStyle;rounded=0;orthogonalLoop=1;jettySize=auto;html=1;exitX=0.5;exitY=1;exitDx=0;exitDy=0;entryX=0.5;entryY=0;entryDx=0;entryDy=0;" edge="1" parent="1" source="XjuXVxNK4QbtMKnYvpnl-1" target="XjuXVxNK4QbtMKnYvpnl-2">
          <mxGeometry relative="1" as="geometry" />
        </mxCell>
        <mxCell id="XjuXVxNK4QbtMKnYvpnl-1" value="Quick sort&amp;nbsp;" style="ellipse;whiteSpace=wrap;html=1;" vertex="1" parent="1">
          <mxGeometry x="387" y="110" width="54" height="50" as="geometry" />
        </mxCell>
        <mxCell id="XjuXVxNK4QbtMKnYvpnl-24" value="" style="edgeStyle=orthogonalEdgeStyle;rounded=0;orthogonalLoop=1;jettySize=auto;html=1;" edge="1" parent="1" source="XjuXVxNK4QbtMKnYvpnl-2" target="XjuXVxNK4QbtMKnYvpnl-23">
          <mxGeometry relative="1" as="geometry" />
        </mxCell>
        <mxCell id="XjuXVxNK4QbtMKnYvpnl-2" value="Seznam čísel: S&amp;nbsp;" style="shape=parallelogram;perimeter=parallelogramPerimeter;whiteSpace=wrap;html=1;fixedSize=1;" vertex="1" parent="1">
          <mxGeometry x="354" y="180" width="120" height="60" as="geometry" />
        </mxCell>
        <mxCell id="XjuXVxNK4QbtMKnYvpnl-8" value="" style="edgeStyle=orthogonalEdgeStyle;rounded=0;orthogonalLoop=1;jettySize=auto;html=1;" edge="1" parent="1" source="XjuXVxNK4QbtMKnYvpnl-5" target="XjuXVxNK4QbtMKnYvpnl-7">
          <mxGeometry relative="1" as="geometry" />
        </mxCell>
        <mxCell id="XjuXVxNK4QbtMKnYvpnl-5" value="Vybereme 1 čislo ze seznamu: P" style="whiteSpace=wrap;html=1;" vertex="1" parent="1">
          <mxGeometry x="354" y="390" width="120" height="60" as="geometry" />
        </mxCell>
        <mxCell id="XjuXVxNK4QbtMKnYvpnl-10" value="" style="edgeStyle=orthogonalEdgeStyle;rounded=0;orthogonalLoop=1;jettySize=auto;html=1;" edge="1" parent="1" source="XjuXVxNK4QbtMKnYvpnl-7" target="XjuXVxNK4QbtMKnYvpnl-9">
          <mxGeometry relative="1" as="geometry" />
        </mxCell>
        <mxCell id="XjuXVxNK4QbtMKnYvpnl-7" value="připravit dvě hromádky Větší,Menší" style="rounded=0;whiteSpace=wrap;html=1;" vertex="1" parent="1">
          <mxGeometry x="354" y="470" width="120" height="60" as="geometry" />
        </mxCell>
        <mxCell id="XjuXVxNK4QbtMKnYvpnl-12" value="" style="edgeStyle=orthogonalEdgeStyle;rounded=0;orthogonalLoop=1;jettySize=auto;html=1;" edge="1" parent="1" source="XjuXVxNK4QbtMKnYvpnl-9" target="XjuXVxNK4QbtMKnYvpnl-11">
          <mxGeometry relative="1" as="geometry" />
        </mxCell>
        <mxCell id="XjuXVxNK4QbtMKnYvpnl-15" value="" style="edgeStyle=orthogonalEdgeStyle;rounded=0;orthogonalLoop=1;jettySize=auto;html=1;" edge="1" parent="1" source="XjuXVxNK4QbtMKnYvpnl-9" target="XjuXVxNK4QbtMKnYvpnl-16">
          <mxGeometry relative="1" as="geometry">
            <mxPoint x="294" y="620" as="targetPoint" />
          </mxGeometry>
        </mxCell>
        <mxCell id="XjuXVxNK4QbtMKnYvpnl-9" value="všechna čísla kromě P&amp;nbsp;" style="strokeWidth=2;html=1;shape=mxgraph.flowchart.loop_limit;whiteSpace=wrap;" vertex="1" parent="1">
          <mxGeometry x="364" y="550" width="100" height="60" as="geometry" />
        </mxCell>
        <mxCell id="XjuXVxNK4QbtMKnYvpnl-11" value="menší čísla do Menší,&lt;br&gt;větší čísla do Větší" style="whiteSpace=wrap;html=1;strokeWidth=2;" vertex="1" parent="1">
          <mxGeometry x="354" y="630" width="120" height="60" as="geometry" />
        </mxCell>
        <mxCell id="XjuXVxNK4QbtMKnYvpnl-13" style="edgeStyle=orthogonalEdgeStyle;rounded=0;orthogonalLoop=1;jettySize=auto;html=1;entryX=1;entryY=0.5;entryDx=0;entryDy=0;entryPerimeter=0;" edge="1" parent="1" source="XjuXVxNK4QbtMKnYvpnl-11" target="XjuXVxNK4QbtMKnYvpnl-9">
          <mxGeometry relative="1" as="geometry">
            <Array as="points">
              <mxPoint x="484" y="660" />
              <mxPoint x="484" y="580" />
            </Array>
          </mxGeometry>
        </mxCell>
        <mxCell id="XjuXVxNK4QbtMKnYvpnl-18" value="" style="edgeStyle=orthogonalEdgeStyle;rounded=0;orthogonalLoop=1;jettySize=auto;html=1;" edge="1" parent="1" source="XjuXVxNK4QbtMKnYvpnl-16" target="XjuXVxNK4QbtMKnYvpnl-17">
          <mxGeometry relative="1" as="geometry" />
        </mxCell>
        <mxCell id="XjuXVxNK4QbtMKnYvpnl-16" value="Zavolat QS zvlášť na Menší a zvlášť na Vetší" style="verticalLabelPosition=middle;verticalAlign=middle;html=1;shape=process;whiteSpace=wrap;rounded=1;size=0.14;arcSize=6;labelPosition=center;align=center;" vertex="1" parent="1">
          <mxGeometry x="240" y="540" width="100" height="80" as="geometry" />
        </mxCell>
        <mxCell id="XjuXVxNK4QbtMKnYvpnl-22" value="" style="edgeStyle=orthogonalEdgeStyle;rounded=0;orthogonalLoop=1;jettySize=auto;html=1;" edge="1" parent="1" source="XjuXVxNK4QbtMKnYvpnl-17" target="XjuXVxNK4QbtMKnYvpnl-21">
          <mxGeometry relative="1" as="geometry" />
        </mxCell>
        <mxCell id="XjuXVxNK4QbtMKnYvpnl-17" value="Spojit za sebe Větší,P a Menší" style="whiteSpace=wrap;html=1;verticalAlign=top;rounded=1;arcSize=6;" vertex="1" parent="1">
          <mxGeometry x="100" y="560" width="120" height="40" as="geometry" />
        </mxCell>
        <mxCell id="XjuXVxNK4QbtMKnYvpnl-21" value="Výsledek jsou spojená čísla" style="ellipse;whiteSpace=wrap;html=1;" vertex="1" parent="1">
          <mxGeometry x="110" y="620" width="100" height="50" as="geometry" />
        </mxCell>
        <mxCell id="XjuXVxNK4QbtMKnYvpnl-25" value="" style="edgeStyle=orthogonalEdgeStyle;rounded=0;orthogonalLoop=1;jettySize=auto;html=1;" edge="1" parent="1" source="XjuXVxNK4QbtMKnYvpnl-23" target="XjuXVxNK4QbtMKnYvpnl-5">
          <mxGeometry relative="1" as="geometry" />
        </mxCell>
        <mxCell id="XjuXVxNK4QbtMKnYvpnl-26" value="ano&lt;br&gt;" style="edgeLabel;html=1;align=center;verticalAlign=middle;resizable=0;points=[];" vertex="1" connectable="0" parent="XjuXVxNK4QbtMKnYvpnl-25">
          <mxGeometry x="-0.0819" y="1" relative="1" as="geometry">
            <mxPoint as="offset" />
          </mxGeometry>
        </mxCell>
        <mxCell id="XjuXVxNK4QbtMKnYvpnl-30" value="" style="edgeStyle=orthogonalEdgeStyle;rounded=0;orthogonalLoop=1;jettySize=auto;html=1;" edge="1" parent="1" source="XjuXVxNK4QbtMKnYvpnl-23" target="XjuXVxNK4QbtMKnYvpnl-31">
          <mxGeometry relative="1" as="geometry">
            <mxPoint x="294" y="309.9999999999999" as="targetPoint" />
          </mxGeometry>
        </mxCell>
        <mxCell id="XjuXVxNK4QbtMKnYvpnl-32" value="ne" style="edgeLabel;html=1;align=center;verticalAlign=middle;resizable=0;points=[];" vertex="1" connectable="0" parent="XjuXVxNK4QbtMKnYvpnl-30">
          <mxGeometry x="-0.0792" relative="1" as="geometry">
            <mxPoint as="offset" />
          </mxGeometry>
        </mxCell>
        <mxCell id="XjuXVxNK4QbtMKnYvpnl-23" value="jsou v seznamu 2 a více čísel" style="rhombus;whiteSpace=wrap;html=1;" vertex="1" parent="1">
          <mxGeometry x="366" y="260" width="96" height="100" as="geometry" />
        </mxCell>
        <mxCell id="XjuXVxNK4QbtMKnYvpnl-31" value="Výsledek je seznam" style="ellipse;whiteSpace=wrap;html=1;" vertex="1" parent="1">
          <mxGeometry x="210" y="270" width="120" height="80" as="geometry" />
        </mxCell>
      </root>
    </mxGraphModel>
  </diagram>
</mxfile>
